<?xml version="1.0" encoding="UTF-8" standalone="no"?>
<!DOCTYPE svg PUBLIC "-//W3C//DTD SVG 1.1//EN"
 "http://www.w3.org/Graphics/SVG/1.1/DTD/svg11.dtd">
<!-- Generated by graphviz version 11.0.0 (20240428.1522)
 -->
<!-- Title: interference_graph Pages: 1 -->
<svg width="2908pt" height="316pt"
 viewBox="0.00 0.00 2908.00 315.75" xmlns="http://www.w3.org/2000/svg" xmlns:xlink="http://www.w3.org/1999/xlink">
<g id="graph0" class="graph" transform="scale(1 1) rotate(0) translate(4 311.75)">
<title>interference_graph</title>
<polygon fill="white" stroke="none" points="-4,4 -4,-311.75 2904,-311.75 2904,4 -4,4"/>
<g id="clust1" class="cluster">
<title>cluster_main</title>
<polygon fill="none" stroke="black" points="8,-8 8,-299.75 1590,-299.75 1590,-8 8,-8"/>
<text text-anchor="middle" x="799" y="-282.45" font-family="Times New Roman,serif" font-size="14.00">main</text>
</g>
<g id="clust2" class="cluster">
<title>cluster_fib</title>
<polygon fill="none" stroke="black" points="1598,-152 1598,-299.75 2892,-299.75 2892,-152 1598,-152"/>
<text text-anchor="middle" x="2245" y="-282.45" font-family="Times New Roman,serif" font-size="14.00">fib</text>
</g>
<!-- Node0 -->
<g id="node1" class="node">
<title>Node0</title>
<ellipse fill="none" stroke="black" cx="43" cy="-250" rx="27" ry="18"/>
<text text-anchor="middle" x="43" y="-244.57" font-family="Times New Roman,serif" font-size="14.00">v4</text>
</g>
<!-- Node1 -->
<g id="node2" class="node">
<title>Node1</title>
<ellipse fill="none" stroke="black" cx="115" cy="-250" rx="27" ry="18"/>
<text text-anchor="middle" x="115" y="-244.57" font-family="Times New Roman,serif" font-size="14.00">v5</text>
</g>
<!-- Node2 -->
<g id="node3" class="node">
<title>Node2</title>
<ellipse fill="none" stroke="black" cx="115" cy="-178" rx="27" ry="18"/>
<text text-anchor="middle" x="115" y="-172.57" font-family="Times New Roman,serif" font-size="14.00">v6</text>
</g>
<!-- Node1&#45;&#45;Node2 -->
<g id="edge15" class="edge">
<title>Node1&#45;&#45;Node2</title>
<path fill="none" stroke="black" d="M115,-231.7C115,-220.85 115,-206.92 115,-196.1"/>
</g>
<!-- Node3 -->
<g id="node4" class="node">
<title>Node3</title>
<ellipse fill="none" stroke="black" cx="187" cy="-178" rx="27" ry="18"/>
<text text-anchor="middle" x="187" y="-172.57" font-family="Times New Roman,serif" font-size="14.00">v7</text>
</g>
<!-- Node4 -->
<g id="node5" class="node">
<title>Node4</title>
<ellipse fill="none" stroke="black" cx="187" cy="-250" rx="27" ry="18"/>
<text text-anchor="middle" x="187" y="-244.57" font-family="Times New Roman,serif" font-size="14.00">v9</text>
</g>
<!-- Node4&#45;&#45;Node3 -->
<g id="edge14" class="edge">
<title>Node4&#45;&#45;Node3</title>
<path fill="none" stroke="black" d="M187,-231.7C187,-220.85 187,-206.92 187,-196.1"/>
</g>
<!-- Node5 -->
<g id="node6" class="node">
<title>Node5</title>
<ellipse fill="none" stroke="black" cx="259" cy="-250" rx="27" ry="18"/>
<text text-anchor="middle" x="259" y="-244.57" font-family="Times New Roman,serif" font-size="14.00">v8</text>
</g>
<!-- Node6 -->
<g id="node7" class="node">
<title>Node6</title>
<ellipse fill="none" stroke="black" cx="331" cy="-178" rx="27" ry="18"/>
<text text-anchor="middle" x="331" y="-172.57" font-family="Times New Roman,serif" font-size="14.00">v10</text>
</g>
<!-- Node7 -->
<g id="node8" class="node">
<title>Node7</title>
<ellipse fill="none" stroke="black" cx="331" cy="-250" rx="27" ry="18"/>
<text text-anchor="middle" x="331" y="-244.57" font-family="Times New Roman,serif" font-size="14.00">v11</text>
</g>
<!-- Node7&#45;&#45;Node6 -->
<g id="edge19" class="edge">
<title>Node7&#45;&#45;Node6</title>
<path fill="none" stroke="black" d="M331,-231.7C331,-220.85 331,-206.92 331,-196.1"/>
</g>
<!-- Node8 -->
<g id="node9" class="node">
<title>Node8</title>
<ellipse fill="none" stroke="black" cx="403" cy="-250" rx="27" ry="18"/>
<text text-anchor="middle" x="403" y="-244.57" font-family="Times New Roman,serif" font-size="14.00">v12</text>
</g>
<!-- Node9 -->
<g id="node10" class="node">
<title>Node9</title>
<ellipse fill="none" stroke="black" cx="403" cy="-178" rx="27" ry="18"/>
<text text-anchor="middle" x="403" y="-172.57" font-family="Times New Roman,serif" font-size="14.00">v13</text>
</g>
<!-- Node8&#45;&#45;Node9 -->
<g id="edge1" class="edge">
<title>Node8&#45;&#45;Node9</title>
<path fill="none" stroke="black" d="M403,-231.7C403,-220.85 403,-206.92 403,-196.1"/>
</g>
<!-- Node10 -->
<g id="node11" class="node">
<title>Node10</title>
<ellipse fill="none" stroke="black" cx="475" cy="-250" rx="27" ry="18"/>
<text text-anchor="middle" x="475" y="-244.57" font-family="Times New Roman,serif" font-size="14.00">v14</text>
</g>
<!-- Node11 -->
<g id="node12" class="node">
<title>Node11</title>
<ellipse fill="none" stroke="black" cx="475" cy="-178" rx="27" ry="18"/>
<text text-anchor="middle" x="475" y="-172.57" font-family="Times New Roman,serif" font-size="14.00">v16</text>
</g>
<!-- Node10&#45;&#45;Node11 -->
<g id="edge5" class="edge">
<title>Node10&#45;&#45;Node11</title>
<path fill="none" stroke="black" d="M475,-231.7C475,-220.85 475,-206.92 475,-196.1"/>
</g>
<!-- Node12 -->
<g id="node13" class="node">
<title>Node12</title>
<ellipse fill="none" stroke="black" cx="547" cy="-250" rx="27" ry="18"/>
<text text-anchor="middle" x="547" y="-244.57" font-family="Times New Roman,serif" font-size="14.00">v15</text>
</g>
<!-- Node13 -->
<g id="node14" class="node">
<title>Node13</title>
<ellipse fill="none" stroke="black" cx="619" cy="-250" rx="27" ry="18"/>
<text text-anchor="middle" x="619" y="-244.57" font-family="Times New Roman,serif" font-size="14.00">v17</text>
</g>
<!-- Node14 -->
<g id="node15" class="node">
<title>Node14</title>
<ellipse fill="none" stroke="black" cx="704" cy="-106" rx="27" ry="18"/>
<text text-anchor="middle" x="704" y="-100.58" font-family="Times New Roman,serif" font-size="14.00">v18</text>
</g>
<!-- Node15 -->
<g id="node16" class="node">
<title>Node15</title>
<ellipse fill="none" stroke="black" cx="658" cy="-34" rx="27" ry="18"/>
<text text-anchor="middle" x="658" y="-28.57" font-family="Times New Roman,serif" font-size="14.00">v20</text>
</g>
<!-- Node14&#45;&#45;Node15 -->
<g id="edge20" class="edge">
<title>Node14&#45;&#45;Node15</title>
<path fill="none" stroke="black" d="M693.56,-89.12C686.03,-77.66 675.92,-62.26 668.4,-50.82"/>
</g>
<!-- Node16 -->
<g id="node17" class="node">
<title>Node16</title>
<ellipse fill="none" stroke="black" cx="671" cy="-178" rx="27" ry="18"/>
<text text-anchor="middle" x="671" y="-172.57" font-family="Times New Roman,serif" font-size="14.00">v21</text>
</g>
<!-- Node16&#45;&#45;Node14 -->
<g id="edge18" class="edge">
<title>Node16&#45;&#45;Node14</title>
<path fill="none" stroke="black" d="M678.82,-160.41C684.08,-149.25 690.99,-134.6 696.24,-123.47"/>
</g>
<!-- Node16&#45;&#45;Node15 -->
<g id="edge17" class="edge">
<title>Node16&#45;&#45;Node15</title>
<path fill="none" stroke="black" d="M669.41,-159.59C666.9,-132.19 662.06,-79.32 659.57,-52.11"/>
</g>
<!-- Node17 -->
<g id="node18" class="node">
<title>Node17</title>
<ellipse fill="none" stroke="black" cx="691" cy="-250" rx="27" ry="18"/>
<text text-anchor="middle" x="691" y="-244.57" font-family="Times New Roman,serif" font-size="14.00">v19</text>
</g>
<!-- Node17&#45;&#45;Node14 -->
<g id="edge13" class="edge">
<title>Node17&#45;&#45;Node14</title>
<path fill="none" stroke="black" d="M697.49,-232.1C701.08,-221.84 705.17,-208.36 707,-196 709.86,-176.65 707.65,-171.54 707,-152 706.69,-142.77 706.03,-132.48 705.41,-124.08"/>
</g>
<!-- Node17&#45;&#45;Node15 -->
<g id="edge11" class="edge">
<title>Node17&#45;&#45;Node15</title>
<path fill="none" stroke="black" d="M671.77,-237.02C658.69,-227.65 642.46,-213.34 635,-196 613.68,-146.46 636.98,-81.22 650.18,-51.29"/>
</g>
<!-- Node17&#45;&#45;Node16 -->
<g id="edge12" class="edge">
<title>Node17&#45;&#45;Node16</title>
<path fill="none" stroke="black" d="M686.16,-232.05C683.01,-221.05 678.93,-206.76 675.8,-195.79"/>
</g>
<!-- Node18 -->
<g id="node19" class="node">
<title>Node18</title>
<ellipse fill="none" stroke="black" cx="763" cy="-250" rx="27" ry="18"/>
<text text-anchor="middle" x="763" y="-244.57" font-family="Times New Roman,serif" font-size="14.00">v22</text>
</g>
<!-- Node19 -->
<g id="node20" class="node">
<title>Node19</title>
<ellipse fill="none" stroke="black" cx="763" cy="-178" rx="27" ry="18"/>
<text text-anchor="middle" x="763" y="-172.57" font-family="Times New Roman,serif" font-size="14.00">v24</text>
</g>
<!-- Node18&#45;&#45;Node19 -->
<g id="edge7" class="edge">
<title>Node18&#45;&#45;Node19</title>
<path fill="none" stroke="black" d="M763,-231.7C763,-220.85 763,-206.92 763,-196.1"/>
</g>
<!-- Node20 -->
<g id="node21" class="node">
<title>Node20</title>
<ellipse fill="none" stroke="black" cx="835" cy="-250" rx="27" ry="18"/>
<text text-anchor="middle" x="835" y="-244.57" font-family="Times New Roman,serif" font-size="14.00">v23</text>
</g>
<!-- Node21 -->
<g id="node22" class="node">
<title>Node21</title>
<ellipse fill="none" stroke="black" cx="835" cy="-178" rx="27" ry="18"/>
<text text-anchor="middle" x="835" y="-172.57" font-family="Times New Roman,serif" font-size="14.00">v25</text>
</g>
<!-- Node20&#45;&#45;Node21 -->
<g id="edge4" class="edge">
<title>Node20&#45;&#45;Node21</title>
<path fill="none" stroke="black" d="M835,-231.7C835,-220.85 835,-206.92 835,-196.1"/>
</g>
<!-- Node22 -->
<g id="node23" class="node">
<title>Node22</title>
<ellipse fill="none" stroke="black" cx="907" cy="-250" rx="27" ry="18"/>
<text text-anchor="middle" x="907" y="-244.57" font-family="Times New Roman,serif" font-size="14.00">v26</text>
</g>
<!-- Node23 -->
<g id="node24" class="node">
<title>Node23</title>
<ellipse fill="none" stroke="black" cx="979" cy="-250" rx="27" ry="18"/>
<text text-anchor="middle" x="979" y="-244.57" font-family="Times New Roman,serif" font-size="14.00">v27</text>
</g>
<!-- Node24 -->
<g id="node25" class="node">
<title>Node24</title>
<ellipse fill="none" stroke="black" cx="1051" cy="-250" rx="27" ry="18"/>
<text text-anchor="middle" x="1051" y="-244.57" font-family="Times New Roman,serif" font-size="14.00">v28</text>
</g>
<!-- Node25 -->
<g id="node26" class="node">
<title>Node25</title>
<ellipse fill="none" stroke="black" cx="1123" cy="-250" rx="27" ry="18"/>
<text text-anchor="middle" x="1123" y="-244.57" font-family="Times New Roman,serif" font-size="14.00">v29</text>
</g>
<!-- Node26 -->
<g id="node27" class="node">
<title>Node26</title>
<ellipse fill="none" stroke="black" cx="1123" cy="-178" rx="27" ry="18"/>
<text text-anchor="middle" x="1123" y="-172.57" font-family="Times New Roman,serif" font-size="14.00">v30</text>
</g>
<!-- Node25&#45;&#45;Node26 -->
<g id="edge9" class="edge">
<title>Node25&#45;&#45;Node26</title>
<path fill="none" stroke="black" d="M1123,-231.7C1123,-220.85 1123,-206.92 1123,-196.1"/>
</g>
<!-- Node27 -->
<g id="node28" class="node">
<title>Node27</title>
<ellipse fill="none" stroke="black" cx="1195" cy="-178" rx="27" ry="18"/>
<text text-anchor="middle" x="1195" y="-172.57" font-family="Times New Roman,serif" font-size="14.00">v31</text>
</g>
<!-- Node28 -->
<g id="node29" class="node">
<title>Node28</title>
<ellipse fill="none" stroke="black" cx="1195" cy="-250" rx="27" ry="18"/>
<text text-anchor="middle" x="1195" y="-244.57" font-family="Times New Roman,serif" font-size="14.00">v33</text>
</g>
<!-- Node28&#45;&#45;Node27 -->
<g id="edge6" class="edge">
<title>Node28&#45;&#45;Node27</title>
<path fill="none" stroke="black" d="M1195,-231.7C1195,-220.85 1195,-206.92 1195,-196.1"/>
</g>
<!-- Node29 -->
<g id="node30" class="node">
<title>Node29</title>
<ellipse fill="none" stroke="black" cx="1267" cy="-250" rx="27" ry="18"/>
<text text-anchor="middle" x="1267" y="-244.57" font-family="Times New Roman,serif" font-size="14.00">v32</text>
</g>
<!-- Node30 -->
<g id="node31" class="node">
<title>Node30</title>
<ellipse fill="none" stroke="black" cx="1339" cy="-106" rx="27" ry="18"/>
<text text-anchor="middle" x="1339" y="-100.58" font-family="Times New Roman,serif" font-size="14.00">v35</text>
</g>
<!-- Node31 -->
<g id="node32" class="node">
<title>Node31</title>
<ellipse fill="none" stroke="black" cx="1362" cy="-178" rx="27" ry="18"/>
<text text-anchor="middle" x="1362" y="-172.57" font-family="Times New Roman,serif" font-size="14.00">v36</text>
</g>
<!-- Node31&#45;&#45;Node30 -->
<g id="edge16" class="edge">
<title>Node31&#45;&#45;Node30</title>
<path fill="none" stroke="black" d="M1356.43,-160.05C1352.82,-149.05 1348.12,-134.76 1344.52,-123.79"/>
</g>
<!-- Node32 -->
<g id="node33" class="node">
<title>Node32</title>
<ellipse fill="none" stroke="black" cx="1339" cy="-250" rx="27" ry="18"/>
<text text-anchor="middle" x="1339" y="-244.57" font-family="Times New Roman,serif" font-size="14.00">v34</text>
</g>
<!-- Node32&#45;&#45;Node30 -->
<g id="edge3" class="edge">
<title>Node32&#45;&#45;Node30</title>
<path fill="none" stroke="black" d="M1333.73,-232.01C1330.81,-221.7 1327.48,-208.23 1326,-196 1323.65,-176.59 1323.26,-171.36 1326,-152 1327.34,-142.5 1330.21,-132.2 1332.91,-123.85"/>
</g>
<!-- Node32&#45;&#45;Node31 -->
<g id="edge2" class="edge">
<title>Node32&#45;&#45;Node31</title>
<path fill="none" stroke="black" d="M1344.57,-232.05C1348.18,-221.05 1352.88,-206.76 1356.48,-195.79"/>
</g>
<!-- Node33 -->
<g id="node34" class="node">
<title>Node33</title>
<ellipse fill="none" stroke="black" cx="1411" cy="-250" rx="27" ry="18"/>
<text text-anchor="middle" x="1411" y="-244.57" font-family="Times New Roman,serif" font-size="14.00">v37</text>
</g>
<!-- Node34 -->
<g id="node35" class="node">
<title>Node34</title>
<ellipse fill="none" stroke="black" cx="1483" cy="-250" rx="27" ry="18"/>
<text text-anchor="middle" x="1483" y="-244.57" font-family="Times New Roman,serif" font-size="14.00">v38</text>
</g>
<!-- Node35 -->
<g id="node36" class="node">
<title>Node35</title>
<ellipse fill="none" stroke="black" cx="1483" cy="-178" rx="27" ry="18"/>
<text text-anchor="middle" x="1483" y="-172.57" font-family="Times New Roman,serif" font-size="14.00">v40</text>
</g>
<!-- Node34&#45;&#45;Node35 -->
<g id="edge8" class="edge">
<title>Node34&#45;&#45;Node35</title>
<path fill="none" stroke="black" d="M1483,-231.7C1483,-220.85 1483,-206.92 1483,-196.1"/>
</g>
<!-- Node36 -->
<g id="node37" class="node">
<title>Node36</title>
<ellipse fill="none" stroke="black" cx="1555" cy="-250" rx="27" ry="18"/>
<text text-anchor="middle" x="1555" y="-244.57" font-family="Times New Roman,serif" font-size="14.00">v39</text>
</g>
<!-- Node37 -->
<g id="node38" class="node">
<title>Node37</title>
<ellipse fill="none" stroke="black" cx="1555" cy="-178" rx="27" ry="18"/>
<text text-anchor="middle" x="1555" y="-172.57" font-family="Times New Roman,serif" font-size="14.00">v41</text>
</g>
<!-- Node36&#45;&#45;Node37 -->
<g id="edge10" class="edge">
<title>Node36&#45;&#45;Node37</title>
<path fill="none" stroke="black" d="M1555,-231.7C1555,-220.85 1555,-206.92 1555,-196.1"/>
</g>
<!-- Node38 -->
<g id="node39" class="node">
<title>Node38</title>
<ellipse fill="none" stroke="black" cx="1633" cy="-250" rx="27" ry="18"/>
<text text-anchor="middle" x="1633" y="-244.57" font-family="Times New Roman,serif" font-size="14.00">v42</text>
</g>
<!-- Node39 -->
<g id="node40" class="node">
<title>Node39</title>
<ellipse fill="none" stroke="black" cx="1633" cy="-178" rx="27" ry="18"/>
<text text-anchor="middle" x="1633" y="-172.57" font-family="Times New Roman,serif" font-size="14.00">v44</text>
</g>
<!-- Node38&#45;&#45;Node39 -->
<g id="edge31" class="edge">
<title>Node38&#45;&#45;Node39</title>
<path fill="none" stroke="black" d="M1633,-231.7C1633,-220.85 1633,-206.92 1633,-196.1"/>
</g>
<!-- Node40 -->
<g id="node41" class="node">
<title>Node40</title>
<ellipse fill="none" stroke="black" cx="1705" cy="-250" rx="27" ry="18"/>
<text text-anchor="middle" x="1705" y="-244.57" font-family="Times New Roman,serif" font-size="14.00">v43</text>
</g>
<!-- Node41 -->
<g id="node42" class="node">
<title>Node41</title>
<ellipse fill="none" stroke="black" cx="1777" cy="-250" rx="27" ry="18"/>
<text text-anchor="middle" x="1777" y="-244.57" font-family="Times New Roman,serif" font-size="14.00">v45</text>
</g>
<!-- Node42 -->
<g id="node43" class="node">
<title>Node42</title>
<ellipse fill="none" stroke="black" cx="1849" cy="-178" rx="27" ry="18"/>
<text text-anchor="middle" x="1849" y="-172.57" font-family="Times New Roman,serif" font-size="14.00">v46</text>
</g>
<!-- Node43 -->
<g id="node44" class="node">
<title>Node43</title>
<ellipse fill="none" stroke="black" cx="1849" cy="-250" rx="27" ry="18"/>
<text text-anchor="middle" x="1849" y="-244.57" font-family="Times New Roman,serif" font-size="14.00">v48</text>
</g>
<!-- Node43&#45;&#45;Node42 -->
<g id="edge26" class="edge">
<title>Node43&#45;&#45;Node42</title>
<path fill="none" stroke="black" d="M1849,-231.7C1849,-220.85 1849,-206.92 1849,-196.1"/>
</g>
<!-- Node44 -->
<g id="node45" class="node">
<title>Node44</title>
<ellipse fill="none" stroke="black" cx="1921" cy="-250" rx="27" ry="18"/>
<text text-anchor="middle" x="1921" y="-244.57" font-family="Times New Roman,serif" font-size="14.00">v47</text>
</g>
<!-- Node45 -->
<g id="node46" class="node">
<title>Node45</title>
<ellipse fill="none" stroke="black" cx="1993" cy="-250" rx="27" ry="18"/>
<text text-anchor="middle" x="1993" y="-244.57" font-family="Times New Roman,serif" font-size="14.00">v49</text>
</g>
<!-- Node46 -->
<g id="node47" class="node">
<title>Node46</title>
<ellipse fill="none" stroke="black" cx="2065" cy="-250" rx="27" ry="18"/>
<text text-anchor="middle" x="2065" y="-244.57" font-family="Times New Roman,serif" font-size="14.00">v50</text>
</g>
<!-- Node47 -->
<g id="node48" class="node">
<title>Node47</title>
<ellipse fill="none" stroke="black" cx="2065" cy="-178" rx="27" ry="18"/>
<text text-anchor="middle" x="2065" y="-172.57" font-family="Times New Roman,serif" font-size="14.00">v51</text>
</g>
<!-- Node46&#45;&#45;Node47 -->
<g id="edge30" class="edge">
<title>Node46&#45;&#45;Node47</title>
<path fill="none" stroke="black" d="M2065,-231.7C2065,-220.85 2065,-206.92 2065,-196.1"/>
</g>
<!-- Node48 -->
<g id="node49" class="node">
<title>Node48</title>
<ellipse fill="none" stroke="black" cx="2137" cy="-178" rx="27" ry="18"/>
<text text-anchor="middle" x="2137" y="-172.57" font-family="Times New Roman,serif" font-size="14.00">v52</text>
</g>
<!-- Node49 -->
<g id="node50" class="node">
<title>Node49</title>
<ellipse fill="none" stroke="black" cx="2137" cy="-250" rx="27" ry="18"/>
<text text-anchor="middle" x="2137" y="-244.57" font-family="Times New Roman,serif" font-size="14.00">v53</text>
</g>
<!-- Node49&#45;&#45;Node48 -->
<g id="edge24" class="edge">
<title>Node49&#45;&#45;Node48</title>
<path fill="none" stroke="black" d="M2137,-231.7C2137,-220.85 2137,-206.92 2137,-196.1"/>
</g>
<!-- Node50 -->
<g id="node51" class="node">
<title>Node50</title>
<ellipse fill="none" stroke="black" cx="2209" cy="-250" rx="27" ry="18"/>
<text text-anchor="middle" x="2209" y="-244.57" font-family="Times New Roman,serif" font-size="14.00">v54</text>
</g>
<!-- Node51 -->
<g id="node52" class="node">
<title>Node51</title>
<ellipse fill="none" stroke="black" cx="2209" cy="-178" rx="27" ry="18"/>
<text text-anchor="middle" x="2209" y="-172.57" font-family="Times New Roman,serif" font-size="14.00">v55</text>
</g>
<!-- Node50&#45;&#45;Node51 -->
<g id="edge29" class="edge">
<title>Node50&#45;&#45;Node51</title>
<path fill="none" stroke="black" d="M2209,-231.7C2209,-220.85 2209,-206.92 2209,-196.1"/>
</g>
<!-- Node52 -->
<g id="node53" class="node">
<title>Node52</title>
<ellipse fill="none" stroke="black" cx="2281" cy="-250" rx="27" ry="18"/>
<text text-anchor="middle" x="2281" y="-244.57" font-family="Times New Roman,serif" font-size="14.00">v56</text>
</g>
<!-- Node53 -->
<g id="node54" class="node">
<title>Node53</title>
<ellipse fill="none" stroke="black" cx="2281" cy="-178" rx="27" ry="18"/>
<text text-anchor="middle" x="2281" y="-172.57" font-family="Times New Roman,serif" font-size="14.00">v58</text>
</g>
<!-- Node52&#45;&#45;Node53 -->
<g id="edge23" class="edge">
<title>Node52&#45;&#45;Node53</title>
<path fill="none" stroke="black" d="M2281,-231.7C2281,-220.85 2281,-206.92 2281,-196.1"/>
</g>
<!-- Node54 -->
<g id="node55" class="node">
<title>Node54</title>
<ellipse fill="none" stroke="black" cx="2353" cy="-250" rx="27" ry="18"/>
<text text-anchor="middle" x="2353" y="-244.57" font-family="Times New Roman,serif" font-size="14.00">v57</text>
</g>
<!-- Node55 -->
<g id="node56" class="node">
<title>Node55</title>
<ellipse fill="none" stroke="black" cx="2425" cy="-250" rx="27" ry="18"/>
<text text-anchor="middle" x="2425" y="-244.57" font-family="Times New Roman,serif" font-size="14.00">v59</text>
</g>
<!-- Node56 -->
<g id="node57" class="node">
<title>Node56</title>
<ellipse fill="none" stroke="black" cx="2425" cy="-178" rx="27" ry="18"/>
<text text-anchor="middle" x="2425" y="-172.57" font-family="Times New Roman,serif" font-size="14.00">v61</text>
</g>
<!-- Node55&#45;&#45;Node56 -->
<g id="edge28" class="edge">
<title>Node55&#45;&#45;Node56</title>
<path fill="none" stroke="black" d="M2425,-231.7C2425,-220.85 2425,-206.92 2425,-196.1"/>
</g>
<!-- Node57 -->
<g id="node58" class="node">
<title>Node57</title>
<ellipse fill="none" stroke="black" cx="2497" cy="-178" rx="27" ry="18"/>
<text text-anchor="middle" x="2497" y="-172.57" font-family="Times New Roman,serif" font-size="14.00">v60</text>
</g>
<!-- Node58 -->
<g id="node59" class="node">
<title>Node58</title>
<ellipse fill="none" stroke="black" cx="2497" cy="-250" rx="27" ry="18"/>
<text text-anchor="middle" x="2497" y="-244.57" font-family="Times New Roman,serif" font-size="14.00">v62</text>
</g>
<!-- Node58&#45;&#45;Node57 -->
<g id="edge25" class="edge">
<title>Node58&#45;&#45;Node57</title>
<path fill="none" stroke="black" d="M2497,-231.7C2497,-220.85 2497,-206.92 2497,-196.1"/>
</g>
<!-- Node59 -->
<g id="node60" class="node">
<title>Node59</title>
<ellipse fill="none" stroke="black" cx="2569" cy="-250" rx="27" ry="18"/>
<text text-anchor="middle" x="2569" y="-244.57" font-family="Times New Roman,serif" font-size="14.00">v63</text>
</g>
<!-- Node60 -->
<g id="node61" class="node">
<title>Node60</title>
<ellipse fill="none" stroke="black" cx="2569" cy="-178" rx="27" ry="18"/>
<text text-anchor="middle" x="2569" y="-172.57" font-family="Times New Roman,serif" font-size="14.00">v64</text>
</g>
<!-- Node59&#45;&#45;Node60 -->
<g id="edge21" class="edge">
<title>Node59&#45;&#45;Node60</title>
<path fill="none" stroke="black" d="M2569,-231.7C2569,-220.85 2569,-206.92 2569,-196.1"/>
</g>
<!-- Node61 -->
<g id="node62" class="node">
<title>Node61</title>
<ellipse fill="none" stroke="black" cx="2641" cy="-178" rx="27" ry="18"/>
<text text-anchor="middle" x="2641" y="-172.57" font-family="Times New Roman,serif" font-size="14.00">v65</text>
</g>
<!-- Node62 -->
<g id="node63" class="node">
<title>Node62</title>
<ellipse fill="none" stroke="black" cx="2641" cy="-250" rx="27" ry="18"/>
<text text-anchor="middle" x="2641" y="-244.57" font-family="Times New Roman,serif" font-size="14.00">v66</text>
</g>
<!-- Node62&#45;&#45;Node61 -->
<g id="edge22" class="edge">
<title>Node62&#45;&#45;Node61</title>
<path fill="none" stroke="black" d="M2641,-231.7C2641,-220.85 2641,-206.92 2641,-196.1"/>
</g>
<!-- Node63 -->
<g id="node64" class="node">
<title>Node63</title>
<ellipse fill="none" stroke="black" cx="2713" cy="-178" rx="27" ry="18"/>
<text text-anchor="middle" x="2713" y="-172.57" font-family="Times New Roman,serif" font-size="14.00">v67</text>
</g>
<!-- Node64 -->
<g id="node65" class="node">
<title>Node64</title>
<ellipse fill="none" stroke="black" cx="2713" cy="-250" rx="27" ry="18"/>
<text text-anchor="middle" x="2713" y="-244.57" font-family="Times New Roman,serif" font-size="14.00">v69</text>
</g>
<!-- Node64&#45;&#45;Node63 -->
<g id="edge32" class="edge">
<title>Node64&#45;&#45;Node63</title>
<path fill="none" stroke="black" d="M2713,-231.7C2713,-220.85 2713,-206.92 2713,-196.1"/>
</g>
<!-- Node65 -->
<g id="node66" class="node">
<title>Node65</title>
<ellipse fill="none" stroke="black" cx="2785" cy="-178" rx="27" ry="18"/>
<text text-anchor="middle" x="2785" y="-172.57" font-family="Times New Roman,serif" font-size="14.00">v68</text>
</g>
<!-- Node66 -->
<g id="node67" class="node">
<title>Node66</title>
<ellipse fill="none" stroke="black" cx="2785" cy="-250" rx="27" ry="18"/>
<text text-anchor="middle" x="2785" y="-244.57" font-family="Times New Roman,serif" font-size="14.00">v70</text>
</g>
<!-- Node66&#45;&#45;Node65 -->
<g id="edge27" class="edge">
<title>Node66&#45;&#45;Node65</title>
<path fill="none" stroke="black" d="M2785,-231.7C2785,-220.85 2785,-206.92 2785,-196.1"/>
</g>
<!-- Node67 -->
<g id="node68" class="node">
<title>Node67</title>
<ellipse fill="none" stroke="black" cx="2857" cy="-250" rx="27" ry="18"/>
<text text-anchor="middle" x="2857" y="-244.57" font-family="Times New Roman,serif" font-size="14.00">v71</text>
</g>
</g>
</svg>
